<svg xmlns="http://www.w3.org/2000/svg" viewBox="0 0 300 200">
  <!-- Orange band -->
  <rect width="300" height="67" fill="#FF9933"/>
  <!-- White band -->
  <rect y="67" width="300" height="66" fill="#FFFFFF"/>
  <!-- Green band -->
  <rect y="133" width="300" height="67" fill="#138808"/>
  <!-- Ashoka Chakra -->
  <circle cx="150" cy="100" r="40" fill="none" stroke="#000080" stroke-width="2"/>
  <circle cx="150" cy="100" r="38" fill="none" stroke="#000080" stroke-width="1"/>
  <!-- 24 spokes -->
  <g stroke="#000080" stroke-width="1.5">
    <line x1="150" y1="62" x2="150" y2="138"/>
    <line x1="188" y1="100" x2="112" y2="100"/>
    <line x1="175" y1="75" x2="125" y2="125"/>
    <line x1="175" y1="125" x2="125" y2="75"/>
    <line x1="180" y1="85" x2="120" y2="115"/>
    <line x1="180" y1="115" x2="120" y2="85"/>
    <line x1="182" y1="95" x2="118" y2="105"/>
    <line x1="182" y1="105" x2="118" y2="95"/>
    <line x1="177" y1="68" x2="123" y2="132"/>
    <line x1="177" y1="132" x2="123" y2="68"/>
    <line x1="169" y1="63" x2="131" y2="137"/>
    <line x1="169" y1="137" x2="131" y2="63"/>
  </g>
  <!-- Center circle -->
  <circle cx="150" cy="100" r="6" fill="#000080"/>
</svg>